<?xml version="1.0" encoding="utf-8"?>
<!-- Generator: Adobe Illustrator 21.0.0, SVG Export Plug-In . SVG Version: 6.00 Build 0)  -->
<svg version="1.1" id="Layer_1" xmlns="http://www.w3.org/2000/svg" xmlns:xlink="http://www.w3.org/1999/xlink" x="0px" y="0px"
	 viewBox="0 0 257.7 257.7" style="enable-background:new 0 0 257.7 257.7;" xml:space="preserve">
<style type="text/css">
	.st0{fill:#FFFFFF;}
</style>
<path class="st0" d="M243.5,0H14.2C6.4,0,0,6.4,0,14.2v229.3c0,7.9,6.4,14.2,14.2,14.2h128v-99.8h-33.6V119h33.6V90.3
	c0-33.3,20.3-51.4,50-51.4c14.2,0,26.5,1.1,30,1.5v34.8l-20.6,0c-16.1,0-19.3,7.7-19.3,18.9V119h38.5l-5,38.9h-33.5v99.8h61.1
	c7.9,0,14.2-6.4,14.2-14.2V14.2C257.7,6.4,251.3,0,243.5,0z"/>
</svg>
